<svg width="30" height="30" viewBox="0 0 30 30" fill="none" xmlns="http://www.w3.org/2000/svg">
<mask id="mask0_1_2" style="mask-type:alpha" maskUnits="userSpaceOnUse" x="1" y="1" width="28" height="28">
<path d="M15 28.5C22.4558 28.5 28.5 22.4558 28.5 15C28.5 7.54416 22.4558 1.5 15 1.5C7.54416 1.5 1.5 7.54416 1.5 15C1.5 22.4558 7.54416 28.5 15 28.5Z" fill="#D9D9D9"/>
</mask>
<g mask="url(#mask0_1_2)">
<g filter="url(#filter0_f_1_2)">
<path fill-rule="evenodd" clip-rule="evenodd" d="M15 43C30.464 43 43 30.464 43 15C43 -0.463973 30.464 -13 15 -13C-0.463973 -13 -13 -0.463973 -13 15C-13 30.464 -0.463973 43 15 43ZM15 23.5C20.5228 23.5 25 19.0228 25 13.5C25 7.97715 20.5228 3.5 15 3.5C9.47715 3.5 5 7.97715 5 13.5C5 19.0228 9.47715 23.5 15 23.5Z" fill="url(#paint0_linear_1_2)"/>
</g>
</g>
<mask id="mask1_1_2" style="mask-type:alpha" maskUnits="userSpaceOnUse" x="1" y="1" width="28" height="28">
<path d="M15 28.5C22.4558 28.5 28.5 22.4558 28.5 15C28.5 7.54416 22.4558 1.5 15 1.5C7.54416 1.5 1.5 7.54416 1.5 15C1.5 22.4558 7.54416 28.5 15 28.5Z" fill="#D9D9D9"/>
</mask>
<g mask="url(#mask1_1_2)">
<g filter="url(#filter1_f_1_2)">
<path fill-rule="evenodd" clip-rule="evenodd" d="M32.3507 36.9776C38.8375 31.8495 43 23.9109 43 15C43 -0.463973 30.464 -13 15 -13C-0.463973 -13 -13 -0.463973 -13 15C-13 17.0674 -12.7759 19.0826 -12.3507 21.0224C-7.58039 17.2512 -1.55309 15 5 15C18.3965 15 29.5957 24.4081 32.3507 36.9776Z" fill="url(#paint1_linear_1_2)"/>
</g>
</g>
<path d="M10.0637 15.0682C10.0278 15.0298 10.0278 14.9702 10.0637 14.9318L16.8269 7.68547C16.8888 7.61912 17 7.66294 17 7.7537V22.2463C17 22.3371 16.8888 22.3809 16.8269 22.3145L10.0637 15.0682Z" fill="url(#paint2_linear_1_2)"/>
<path d="M16.4614 7.34431L16.8235 7.68227M16.4614 7.34431L9.69816 14.5906C9.483 14.8211 9.483 15.1789 9.69816 15.4094L16.4614 22.6557C16.8329 23.0538 17.5 22.7909 17.5 22.2463V7.7537C17.5 7.20913 16.8329 6.9462 16.4614 7.34431Z" stroke="#787878" stroke-opacity="0.5"/>
<g filter="url(#filter2_i_1_2)">
<path d="M10.0637 15.0682C10.0278 15.0298 10.0278 14.9702 10.0637 14.9318L16.8269 7.68547C16.8888 7.61912 17 7.66294 17 7.7537V22.2463C17 22.3371 16.8888 22.3809 16.8269 22.3145L10.0637 15.0682Z" fill="white" fill-opacity="0.01"/>
</g>
<defs>
<filter id="filter0_f_1_2" x="-15" y="-15" width="60" height="60" filterUnits="userSpaceOnUse" color-interpolation-filters="sRGB">
<feFlood flood-opacity="0" result="BackgroundImageFix"/>
<feBlend mode="normal" in="SourceGraphic" in2="BackgroundImageFix" result="shape"/>
<feGaussianBlur stdDeviation="1" result="effect1_foregroundBlur_1_2"/>
</filter>
<filter id="filter1_f_1_2" x="-17" y="-17" width="64" height="57.9776" filterUnits="userSpaceOnUse" color-interpolation-filters="sRGB">
<feFlood flood-opacity="0" result="BackgroundImageFix"/>
<feBlend mode="normal" in="SourceGraphic" in2="BackgroundImageFix" result="shape"/>
<feGaussianBlur stdDeviation="2" result="effect1_foregroundBlur_1_2"/>
</filter>
<filter id="filter2_i_1_2" x="10.0368" y="7.6535" width="6.96323" height="15.693" filterUnits="userSpaceOnUse" color-interpolation-filters="sRGB">
<feFlood flood-opacity="0" result="BackgroundImageFix"/>
<feBlend mode="normal" in="SourceGraphic" in2="BackgroundImageFix" result="shape"/>
<feColorMatrix in="SourceAlpha" type="matrix" values="0 0 0 0 0 0 0 0 0 0 0 0 0 0 0 0 0 0 127 0" result="hardAlpha"/>
<feOffset dy="2"/>
<feGaussianBlur stdDeviation="0.5"/>
<feComposite in2="hardAlpha" operator="arithmetic" k2="-1" k3="1"/>
<feColorMatrix type="matrix" values="0 0 0 0 1 0 0 0 0 1 0 0 0 0 1 0 0 0 1 0"/>
<feBlend mode="normal" in2="shape" result="effect1_innerShadow_1_2"/>
</filter>
<linearGradient id="paint0_linear_1_2" x1="10.9995" y1="29.5" x2="14.9995" y2="15" gradientUnits="userSpaceOnUse">
<stop stop-color="white" stop-opacity="0.6"/>
<stop offset="0.342475" stop-color="white" stop-opacity="0.35"/>
<stop offset="0.782729" stop-color="white" stop-opacity="0"/>
</linearGradient>
<linearGradient id="paint1_linear_1_2" x1="25.4995" y1="3.99989" x2="12.4997" y2="29.4998" gradientUnits="userSpaceOnUse">
<stop offset="0.0488509" stop-color="white" stop-opacity="0.8"/>
<stop offset="0.488235" stop-color="white" stop-opacity="0.3"/>
<stop offset="0.636081" stop-color="white" stop-opacity="0"/>
</linearGradient>
<linearGradient id="paint2_linear_1_2" x1="10" y1="15" x2="17" y2="15" gradientUnits="userSpaceOnUse">
<stop stop-color="white"/>
<stop offset="0.5" stop-color="#F7F9FF"/>
<stop offset="1" stop-color="#D3DAE7"/>
</linearGradient>
</defs>
</svg>
