<svg width="21" height="22" viewBox="0 0 21 22" fill="none" xmlns="http://www.w3.org/2000/svg">
<g filter="url(#filter0_d_14_9)">
<path d="M7 9V13H8V14H9V15H10V14H11V13H12V12H13V11H14V7H13V8H12V9H11V10H10V11H9V10H8V9H7Z" fill="#77ACDC" fill-opacity="0.8" shape-rendering="crispEdges"/>
</g>
<path d="M7 10V12H8V13H9V14H10V13H11V12H12V11H13V10H14V8H13V9H12V10H11V11H10V12H9V11H8V10H7Z" fill="#B6EBFD"/>
<defs>
<filter id="filter0_d_14_9" x="0" y="0" width="21" height="22" filterUnits="userSpaceOnUse" color-interpolation-filters="sRGB">
<feFlood flood-opacity="0" result="BackgroundImageFix"/>
<feColorMatrix in="SourceAlpha" type="matrix" values="0 0 0 0 0 0 0 0 0 0 0 0 0 0 0 0 0 0 127 0" result="hardAlpha"/>
<feOffset/>
<feGaussianBlur stdDeviation="3.5"/>
<feComposite in2="hardAlpha" operator="out"/>
<feColorMatrix type="matrix" values="0 0 0 0 0 0 0 0 0 0.151786 0 0 0 0 0.708333 0 0 0 0.5 0"/>
<feBlend mode="normal" in2="BackgroundImageFix" result="effect1_dropShadow_14_9"/>
<feBlend mode="normal" in="SourceGraphic" in2="effect1_dropShadow_14_9" result="shape"/>
</filter>
</defs>
</svg>
