<svg width="17" height="17" viewBox="0 0 17 17" fill="none" xmlns="http://www.w3.org/2000/svg">
<g filter="url(#filter0_d_2010_6874)">
<path d="M6 5H5V6H4V7H5V8H6V9H7V10H6V11H5V12H4V14H6V13H7V12H8V11H9V12H10V13H11V14H13V12H12V11H11V10H10V9H11V8H12V7H13V6H12V5H11V6H10V7H9V8H8V7H7V6H6V5Z" fill="#B1B1B1" fill-opacity="0.5" shape-rendering="crispEdges"/>
</g>
<defs>
<filter id="filter0_d_2010_6874" x="3" y="4" width="11" height="11" filterUnits="userSpaceOnUse" color-interpolation-filters="sRGB">
<feFlood flood-opacity="0" result="BackgroundImageFix"/>
<feColorMatrix in="SourceAlpha" type="matrix" values="0 0 0 0 0 0 0 0 0 0 0 0 0 0 0 0 0 0 127 0" result="hardAlpha"/>
<feOffset/>
<feGaussianBlur stdDeviation="0.5"/>
<feComposite in2="hardAlpha" operator="out"/>
<feColorMatrix type="matrix" values="0 0 0 0 0 0 0 0 0 0.0588235 0 0 0 0 0.509804 0 0 0 0.7 0"/>
<feBlend mode="normal" in2="BackgroundImageFix" result="effect1_dropShadow_2010_6874"/>
<feBlend mode="normal" in="SourceGraphic" in2="effect1_dropShadow_2010_6874" result="shape"/>
</filter>
</defs>
</svg>
