<svg width="20" height="20" viewBox="0 0 20 20" fill="none" xmlns="http://www.w3.org/2000/svg">
<circle cx="10" cy="10" r="8.25" fill="#568BD7"/>
<circle cx="10" cy="10" r="8.75" stroke="url(#paint0_linear_281_9716)" stroke-opacity="0.375"/>
<g opacity="0.9">
<mask id="mask0_281_9716" style="mask-type:alpha" maskUnits="userSpaceOnUse" x="1" y="1" width="18" height="18">
<circle cx="10" cy="10" r="8.25" fill="#D9D9D9"/>
</mask>
<g mask="url(#mask0_281_9716)">
<g filter="url(#filter0_f_281_9716)">
<path fill-rule="evenodd" clip-rule="evenodd" d="M10.0012 27.5512C19.6938 27.5512 27.5512 19.6938 27.5512 10.0012C27.5512 0.308574 19.6938 -7.54883 10.0012 -7.54883C0.308574 -7.54883 -7.54883 0.308574 -7.54883 10.0012C-7.54883 19.6938 0.308574 27.5512 10.0012 27.5512ZM10.0003 15.3287C13.4619 15.3287 16.2681 12.5225 16.2681 9.06083C16.2681 5.59918 13.4619 2.79297 10.0003 2.79297C6.53864 2.79297 3.73242 5.59918 3.73242 9.06083C3.73242 12.5225 6.53864 15.3287 10.0003 15.3287Z" fill="url(#paint1_linear_281_9716)"/>
</g>
</g>
<mask id="mask1_281_9716" style="mask-type:alpha" maskUnits="userSpaceOnUse" x="1" y="1" width="18" height="18">
<circle cx="10" cy="10" r="8.25" fill="#D9D9D9"/>
</mask>
<g mask="url(#mask1_281_9716)">
<g filter="url(#filter1_f_281_9716)">
<path fill-rule="evenodd" clip-rule="evenodd" d="M20.8748 23.7777C24.9415 20.5635 27.5512 15.5871 27.5512 10.0012C27.5512 0.308574 19.6938 -7.54883 10.0012 -7.54883C0.308574 -7.54883 -7.54883 0.308574 -7.54883 10.0012C-7.54883 11.2969 -7.40842 12.5597 -7.14198 13.7755C-4.15225 11.4125 -0.375024 10.002 3.73164 10.002C12.1286 10.002 19.1481 15.899 20.8748 23.7777Z" fill="url(#paint2_linear_281_9716)"/>
</g>
</g>
</g>
<path d="M12.8524 10.1661C12.9366 10.0714 12.9366 9.92863 12.8524 9.83391L9.43685 5.99146C9.28413 5.81964 9 5.92767 9 6.15755V13.8425C9 14.0723 9.28413 14.1804 9.43685 14.0085L12.8524 10.1661Z" fill="url(#paint3_linear_281_9716)"/>
<path d="M13.2261 9.50173C13.4787 9.78589 13.4787 10.2141 13.2261 10.4983L9.81056 14.3407C9.35239 14.8562 8.5 14.5321 8.5 13.8425V6.15755C8.5 5.46791 9.35239 5.14383 9.81056 5.65928L13.2261 9.50173Z" stroke="#787878" stroke-opacity="0.5"/>
<g filter="url(#filter2_i_281_9716)">
<path d="M12.8524 10.1661C12.9366 10.0714 12.9366 9.92863 12.8524 9.83391L9.43685 5.99146C9.28413 5.81964 9 5.92767 9 6.15755V13.8425C9 14.0723 9.28413 14.1804 9.43685 14.0085L12.8524 10.1661Z" fill="white" fill-opacity="0.01"/>
</g>
<defs>
<filter id="filter0_f_281_9716" x="-9.54883" y="-9.54883" width="39.1" height="39.1" filterUnits="userSpaceOnUse" color-interpolation-filters="sRGB">
<feFlood flood-opacity="0" result="BackgroundImageFix"/>
<feBlend mode="normal" in="SourceGraphic" in2="BackgroundImageFix" result="shape"/>
<feGaussianBlur stdDeviation="1" result="effect1_foregroundBlur_281_9716"/>
</filter>
<filter id="filter1_f_281_9716" x="-11.5488" y="-11.5488" width="43.1" height="39.3265" filterUnits="userSpaceOnUse" color-interpolation-filters="sRGB">
<feFlood flood-opacity="0" result="BackgroundImageFix"/>
<feBlend mode="normal" in="SourceGraphic" in2="BackgroundImageFix" result="shape"/>
<feGaussianBlur stdDeviation="2" result="effect1_foregroundBlur_281_9716"/>
</filter>
<filter id="filter2_i_281_9716" x="9" y="5.90704" width="3.9155" height="9.18591" filterUnits="userSpaceOnUse" color-interpolation-filters="sRGB">
<feFlood flood-opacity="0" result="BackgroundImageFix"/>
<feBlend mode="normal" in="SourceGraphic" in2="BackgroundImageFix" result="shape"/>
<feColorMatrix in="SourceAlpha" type="matrix" values="0 0 0 0 0 0 0 0 0 0 0 0 0 0 0 0 0 0 127 0" result="hardAlpha"/>
<feOffset dy="2"/>
<feGaussianBlur stdDeviation="0.5"/>
<feComposite in2="hardAlpha" operator="arithmetic" k2="-1" k3="1"/>
<feColorMatrix type="matrix" values="0 0 0 0 1 0 0 0 0 1 0 0 0 0 1 0 0 0 1 0"/>
<feBlend mode="normal" in2="shape" result="effect1_innerShadow_281_9716"/>
</filter>
<linearGradient id="paint0_linear_281_9716" x1="10" y1="19.7059" x2="10" y2="0.294118" gradientUnits="userSpaceOnUse">
<stop stop-color="#00409D"/>
<stop offset="1" stop-color="#00409D" stop-opacity="0"/>
</linearGradient>
<linearGradient id="paint1_linear_281_9716" x1="7.49372" y1="19.0896" x2="10.0009" y2="10.0012" gradientUnits="userSpaceOnUse">
<stop stop-color="white" stop-opacity="0.6"/>
<stop offset="0.342475" stop-color="white" stop-opacity="0.35"/>
<stop offset="0.782729" stop-color="white" stop-opacity="0"/>
</linearGradient>
<linearGradient id="paint2_linear_281_9716" x1="16.5821" y1="3.10688" x2="8.43348" y2="19.0902" gradientUnits="userSpaceOnUse">
<stop offset="0.0488509" stop-color="white" stop-opacity="0.8"/>
<stop offset="0.488235" stop-color="white" stop-opacity="0.3"/>
<stop offset="0.636081" stop-color="white" stop-opacity="0"/>
</linearGradient>
<linearGradient id="paint3_linear_281_9716" x1="13" y1="10" x2="9" y2="10" gradientUnits="userSpaceOnUse">
<stop stop-color="white"/>
<stop offset="0.5" stop-color="#F7F9FF"/>
<stop offset="1" stop-color="#D3DAE7"/>
</linearGradient>
</defs>
</svg>
