<svg width="57" height="34" viewBox="0 0 57 34" fill="none" xmlns="http://www.w3.org/2000/svg">
<path fill-rule="evenodd" clip-rule="evenodd" d="M35.3122 28.3535C30.8551 29.1238 26.8527 31.579 22.58 33.063C20.8321 33.6701 18.9546 34 17 34C7.61116 34 0 26.3888 0 17C0 7.61116 7.61116 0 17 0C18.9546 0 20.8321 0.329865 22.58 0.936962C26.8527 2.42105 30.8551 4.87619 35.3122 5.64655L37.776 6.07239C40.4771 6.53925 43.2588 6 46 6C52.0751 6 57 10.9249 57 17C57 23.0751 52.0751 28 46 28C43.2588 28 40.4771 27.4607 37.776 27.9276L35.3122 28.3535Z" fill="url(#paint0_linear_281_9597)"/>
<defs>
<linearGradient id="paint0_linear_281_9597" x1="27" y1="12" x2="27" y2="34" gradientUnits="userSpaceOnUse">
<stop stop-opacity="0.13"/>
<stop offset="0.5" stop-color="white" stop-opacity="0.15"/>
<stop offset="0.7" stop-color="white" stop-opacity="0.36"/>
<stop offset="1" stop-color="white" stop-opacity="0.48"/>
</linearGradient>
</defs>
</svg>
