<svg width="24" height="24" viewBox="0 0 24 24" fill="none" xmlns="http://www.w3.org/2000/svg">
<g clip-path="url(#clip0_6_2)">
<mask id="mask0_6_2" style="mask-type:luminance" maskUnits="userSpaceOnUse" x="0" y="0" width="24" height="24">
<path d="M24 0H0V24H24V0Z" fill="white"/>
</mask>
<g mask="url(#mask0_6_2)">
<g opacity="0.9">
<mask id="mask1_6_2" style="mask-type:alpha" maskUnits="userSpaceOnUse" x="2" y="2" width="20" height="20">
<g opacity="0.9">
<g opacity="0.9">
<path d="M12 22C17.5228 22 22 17.5228 22 12C22 6.47715 17.5228 2 12 2C6.47716 2 2 6.47715 2 12C2 17.5228 6.47716 22 12 22Z" fill="#D9D9D9"/>
</g>
</g>
</mask>
<g mask="url(#mask1_6_2)">
<g filter="url(#filter0_f_6_2)">
<path fill-rule="evenodd" clip-rule="evenodd" d="M12.2 33.8C24.1293 33.8 33.8 24.1293 33.8 12.2C33.8 0.270653 24.1293 -9.4 12.2 -9.4C0.270657 -9.4 -9.39999 0.270653 -9.39999 12.2C-9.39999 24.1293 0.270657 33.8 12.2 33.8ZM12.1987 18.7575C16.4591 18.7575 19.9129 15.3037 19.9129 11.0432C19.9129 6.78271 16.4591 3.32891 12.1987 3.32891C7.93819 3.32891 4.48439 6.78271 4.48439 11.0432C4.48439 15.3037 7.93819 18.7575 12.1987 18.7575Z" fill="url(#paint0_linear_6_2)"/>
</g>
</g>
<mask id="mask2_6_2" style="mask-type:alpha" maskUnits="userSpaceOnUse" x="2" y="2" width="20" height="20">
<g opacity="0.9">
<g opacity="0.9">
<path d="M12 22C17.5228 22 22 17.5228 22 12C22 6.47715 17.5228 2 12 2C6.47716 2 2 6.47715 2 12C2 17.5228 6.47716 22 12 22Z" fill="#D9D9D9"/>
</g>
</g>
</mask>
<g mask="url(#mask2_6_2)">
<g filter="url(#filter1_f_6_2)">
<path fill-rule="evenodd" clip-rule="evenodd" d="M25.5837 29.1551C30.5884 25.1991 33.8 19.0746 33.8 12.2C33.8 0.270653 24.1293 -9.4 12.2 -9.4C0.270657 -9.4 -9.39999 0.270653 -9.39999 12.2C-9.39999 13.7946 -9.2272 15.3488 -8.89933 16.8449C-5.21953 13.9363 -0.570339 12.2 4.48438 12.2C14.8192 12.2 23.4587 19.4581 25.5837 29.1551Z" fill="url(#paint1_linear_6_2)"/>
</g>
</g>
</g>
</g>
<path d="M16.6915 8.57834L15.4169 7.30511C15.0094 6.89801 14.349 6.89834 13.942 7.30585L11.9986 9.25114L10.0533 7.30779C9.64583 6.90069 8.98544 6.90101 8.57834 7.30852L7.30512 8.58302C6.89801 8.99054 6.89833 9.65091 7.30585 10.058L9.25113 12.0014L7.30779 13.9466C6.90068 14.3541 6.90101 15.0146 7.30853 15.4216L8.58302 16.6949C8.99053 17.102 9.65092 17.1017 10.058 16.6942L12.0014 14.7488L13.9466 16.6922C14.3541 17.0993 15.0146 17.099 15.4216 16.6915L16.6949 15.4169C17.102 15.0094 17.1017 14.349 16.6942 13.942L14.7488 11.9987L16.6922 10.0533C17.0993 9.64582 17.099 8.98545 16.6915 8.57834Z" fill="white" fill-opacity="0.8" stroke="#787878" stroke-opacity="0.5"/>
</g>
<defs>
<filter id="filter0_f_6_2" x="-11.4" y="-11.4" width="47.2" height="47.2" filterUnits="userSpaceOnUse" color-interpolation-filters="sRGB">
<feFlood flood-opacity="0" result="BackgroundImageFix"/>
<feBlend mode="normal" in="SourceGraphic" in2="BackgroundImageFix" result="shape"/>
<feGaussianBlur stdDeviation="1" result="effect1_foregroundBlur_6_2"/>
</filter>
<filter id="filter1_f_6_2" x="-13.4" y="-13.4" width="51.2" height="46.5551" filterUnits="userSpaceOnUse" color-interpolation-filters="sRGB">
<feFlood flood-opacity="0" result="BackgroundImageFix"/>
<feBlend mode="normal" in="SourceGraphic" in2="BackgroundImageFix" result="shape"/>
<feGaussianBlur stdDeviation="2" result="effect1_foregroundBlur_6_2"/>
</filter>
<linearGradient id="paint0_linear_6_2" x1="9.11392" y1="23.3857" x2="12.1996" y2="12.2" gradientUnits="userSpaceOnUse">
<stop stop-color="white" stop-opacity="0.6"/>
<stop offset="0.342475" stop-color="white" stop-opacity="0.35"/>
<stop offset="0.782729" stop-color="white" stop-opacity="0"/>
</linearGradient>
<linearGradient id="paint1_linear_6_2" x1="20.2996" y1="3.71451" x2="10.2708" y2="23.3861" gradientUnits="userSpaceOnUse">
<stop offset="0.0488509" stop-color="white" stop-opacity="0.8"/>
<stop offset="0.488235" stop-color="white" stop-opacity="0.3"/>
<stop offset="0.636081" stop-color="white" stop-opacity="0"/>
</linearGradient>
<clipPath id="clip0_6_2">
<rect width="24" height="24" fill="white"/>
</clipPath>
</defs>
</svg>
