<svg width="16" height="16" viewBox="0 0 16 16" fill="none" xmlns="http://www.w3.org/2000/svg">
<g filter="url(#filter0_d_5_14)">
<path d="M6 4H5V5H4V6H5V7H6V8H7V9H6V10H5V11H4V13H6V12H7V11H8V10H9V11H10V12H11V13H13V11H12V10H11V9H10V8H11V7H12V6H13V5H12V4H11V5H10V6H9V7H8V6H7V5H6V4Z" fill="#4D76AC"/>
</g>
<defs>
<filter id="filter0_d_5_14" x="3" y="3" width="11" height="11" filterUnits="userSpaceOnUse" color-interpolation-filters="sRGB">
<feFlood flood-opacity="0" result="BackgroundImageFix"/>
<feColorMatrix in="SourceAlpha" type="matrix" values="0 0 0 0 0 0 0 0 0 0 0 0 0 0 0 0 0 0 127 0" result="hardAlpha"/>
<feOffset/>
<feGaussianBlur stdDeviation="0.5"/>
<feComposite in2="hardAlpha" operator="out"/>
<feColorMatrix type="matrix" values="0 0 0 0 0 0 0 0 0 0.0588235 0 0 0 0 0.509804 0 0 0 0.7 0"/>
<feBlend mode="normal" in2="BackgroundImageFix" result="effect1_dropShadow_5_14"/>
<feBlend mode="normal" in="SourceGraphic" in2="effect1_dropShadow_5_14" result="shape"/>
</filter>
</defs>
</svg>
