<svg width="16" height="16" viewBox="0 0 16 16" fill="none" xmlns="http://www.w3.org/2000/svg">
<g filter="url(#filter0_d_5_18)">
<path d="M6.25 4V3.75H6H5H4.75V4V4.75H4H3.75V5V6V6.25H4H4.75V7V7.25H5H5.75V8V8.25H6H6.75V8.75H6H5.75V9V9.75H5H4.75V10V10.75H4H3.75V11V13V13.25H4H6H6.25V13V12.25H7H7.25V12V11.25H8H8.25V11V10.25H8.75V11V11.25H9H9.75V12V12.25H10H10.75V13V13.25H11H13H13.25V13V11V10.75H13H12.25V10V9.75H12H11.25V9V8.75H11H10.25V8.25H11H11.25V8V7.25H12H12.25V7V6.25H13H13.25V6V5V4.75H13H12.25V4V3.75H12H11H10.75V4V4.75H10H9.75V5V5.75H9H8.75V6V6.75H8.25V6V5.75H8H7.25V5V4.75H7H6.25V4Z" fill="#D3DEF9" fill-opacity="0.63" stroke="#4D76AC" stroke-width="0.5"/>
</g>
<defs>
<filter id="filter0_d_5_18" x="2.5" y="2.5" width="12" height="12" filterUnits="userSpaceOnUse" color-interpolation-filters="sRGB">
<feFlood flood-opacity="0" result="BackgroundImageFix"/>
<feColorMatrix in="SourceAlpha" type="matrix" values="0 0 0 0 0 0 0 0 0 0 0 0 0 0 0 0 0 0 127 0" result="hardAlpha"/>
<feOffset/>
<feGaussianBlur stdDeviation="0.5"/>
<feComposite in2="hardAlpha" operator="out"/>
<feColorMatrix type="matrix" values="0 0 0 0 0 0 0 0 0 0.0588235 0 0 0 0 0.509804 0 0 0 0.7 0"/>
<feBlend mode="normal" in2="BackgroundImageFix" result="effect1_dropShadow_5_18"/>
<feBlend mode="normal" in="SourceGraphic" in2="effect1_dropShadow_5_18" result="shape"/>
</filter>
</defs>
</svg>
