<svg width="43" height="39" viewBox="0 0 43 39" fill="none" xmlns="http://www.w3.org/2000/svg">
<path d="M2 0.5C1.17157 0.5 0.5 1.17157 0.5 2V24C0.5 24.8284 1.17157 25.5 2 25.5H32C32.8284 25.5 33.5 24.8284 33.5 24V2C33.5 1.17157 32.8284 0.5 32 0.5H2Z" fill="url(#paint0_linear_3_36)" stroke="url(#paint1_linear_3_36)"/>
<path d="M2 3.5C1.17157 3.5 0.5 4.17157 0.5 5V24C0.5 24.8284 1.17157 25.5 2 25.5H32C32.8284 25.5 33.5 24.8284 33.5 24V5C33.5 4.17157 32.8284 3.5 32 3.5H2Z" fill="url(#paint2_linear_3_36)" stroke="#4E84D3"/>
<rect x="1" y="1" width="32" height="4" fill="url(#paint3_linear_3_36)"/>
<rect x="1" y="5" width="32" height="2" fill="url(#paint4_linear_3_36)"/>
<g filter="url(#filter0_d_3_36)">
<path d="M11.224 12.64C11.288 12.64 11.332 12.66 11.356 12.7C11.38 12.74 11.38 12.788 11.356 12.844L9.48397 18.832C9.46797 18.896 9.43997 18.94 9.39997 18.964C9.36797 18.988 9.31597 19 9.24397 19H8.54797C8.40397 19 8.31197 18.94 8.27197 18.82L6.97597 14.704C6.94397 14.632 6.91197 14.596 6.87997 14.596C6.85597 14.596 6.83597 14.632 6.81997 14.704L5.55997 18.832C5.54397 18.896 5.51597 18.94 5.47597 18.964C5.44397 18.988 5.39597 19 5.33197 19H4.58797C4.44397 19 4.35597 18.94 4.32397 18.82L2.41597 12.856C2.39997 12.792 2.40397 12.74 2.42797 12.7C2.45197 12.66 2.49597 12.64 2.55997 12.64H3.49597C3.54397 12.64 3.58797 12.656 3.62797 12.688C3.66797 12.712 3.69597 12.748 3.71197 12.796L5.03197 17.068C5.04797 17.14 5.07197 17.176 5.10397 17.176C5.14397 17.176 5.17597 17.136 5.19997 17.056L6.49597 12.784C6.51197 12.736 6.53597 12.7 6.56797 12.676C6.59997 12.652 6.64397 12.64 6.69997 12.64H7.39597C7.44397 12.64 7.48797 12.656 7.52797 12.688C7.56797 12.712 7.59197 12.748 7.59997 12.796L8.94397 17.068C8.96797 17.14 8.99597 17.176 9.02797 17.176C9.05997 17.176 9.08797 17.136 9.11197 17.056L10.384 12.784C10.408 12.744 10.436 12.712 10.468 12.688C10.508 12.656 10.556 12.64 10.612 12.64H11.224ZM21.3396 12.64C21.4036 12.64 21.4476 12.66 21.4716 12.7C21.4956 12.74 21.4956 12.788 21.4716 12.844L19.5996 18.832C19.5836 18.896 19.5556 18.94 19.5156 18.964C19.4836 18.988 19.4316 19 19.3596 19H18.6636C18.5196 19 18.4276 18.94 18.3876 18.82L17.0916 14.704C17.0596 14.632 17.0276 14.596 16.9956 14.596C16.9716 14.596 16.9516 14.632 16.9356 14.704L15.6756 18.832C15.6596 18.896 15.6316 18.94 15.5916 18.964C15.5596 18.988 15.5116 19 15.4476 19H14.7036C14.5596 19 14.4716 18.94 14.4396 18.82L12.5316 12.856C12.5156 12.792 12.5196 12.74 12.5436 12.7C12.5676 12.66 12.6116 12.64 12.6756 12.64H13.6116C13.6596 12.64 13.7036 12.656 13.7436 12.688C13.7836 12.712 13.8116 12.748 13.8276 12.796L15.1476 17.068C15.1636 17.14 15.1876 17.176 15.2196 17.176C15.2596 17.176 15.2916 17.136 15.3156 17.056L16.6116 12.784C16.6276 12.736 16.6516 12.7 16.6836 12.676C16.7156 12.652 16.7596 12.64 16.8156 12.64H17.5116C17.5596 12.64 17.6036 12.656 17.6436 12.688C17.6836 12.712 17.7076 12.748 17.7156 12.796L19.0596 17.068C19.0836 17.14 19.1116 17.176 19.1436 17.176C19.1756 17.176 19.2036 17.136 19.2276 17.056L20.4996 12.784C20.5236 12.744 20.5516 12.712 20.5836 12.688C20.6236 12.656 20.6716 12.64 20.7276 12.64H21.3396ZM31.4552 12.64C31.5192 12.64 31.5632 12.66 31.5872 12.7C31.6112 12.74 31.6112 12.788 31.5872 12.844L29.7152 18.832C29.6992 18.896 29.6712 18.94 29.6312 18.964C29.5992 18.988 29.5472 19 29.4752 19H28.7792C28.6352 19 28.5432 18.94 28.5032 18.82L27.2072 14.704C27.1752 14.632 27.1432 14.596 27.1112 14.596C27.0872 14.596 27.0672 14.632 27.0512 14.704L25.7912 18.832C25.7752 18.896 25.7472 18.94 25.7072 18.964C25.6752 18.988 25.6272 19 25.5632 19H24.8192C24.6752 19 24.5872 18.94 24.5552 18.82L22.6472 12.856C22.6312 12.792 22.6352 12.74 22.6592 12.7C22.6832 12.66 22.7272 12.64 22.7912 12.64H23.7272C23.7752 12.64 23.8192 12.656 23.8592 12.688C23.8992 12.712 23.9272 12.748 23.9432 12.796L25.2632 17.068C25.2792 17.14 25.3032 17.176 25.3352 17.176C25.3752 17.176 25.4072 17.136 25.4312 17.056L26.7272 12.784C26.7432 12.736 26.7672 12.7 26.7992 12.676C26.8312 12.652 26.8752 12.64 26.9312 12.64H27.6272C27.6752 12.64 27.7192 12.656 27.7592 12.688C27.7992 12.712 27.8232 12.748 27.8312 12.796L29.1752 17.068C29.1992 17.14 29.2272 17.176 29.2592 17.176C29.2912 17.176 29.3192 17.136 29.3432 17.056L30.6152 12.784C30.6392 12.744 30.6672 12.712 30.6992 12.688C30.7392 12.656 30.7872 12.64 30.8432 12.64H31.4552Z" fill="#7CAAE6" fill-opacity="0.69" shape-rendering="crispEdges"/>
</g>
<rect x="28" y="22" width="4" height="3" fill="white"/>
<mask id="path-7-outside-1_3_36" maskUnits="userSpaceOnUse" x="23" y="17" width="16" height="18" fill="black">
<rect fill="white" x="23" y="17" width="16" height="18"/>
<path fill-rule="evenodd" clip-rule="evenodd" d="M31.3717 29.5679C32.5543 29.5679 33.1768 28.4832 33.1768 28.1642H37.4405C37.4405 28.9936 35.9363 32.439 31.3094 32.439C29.0375 32.439 26.7344 31.482 25.8941 29.7593L25.8319 29.855C23.8401 34.0022 27.0768 33.7151 29.4732 32.4709C29.4901 32.4632 29.5096 32.454 29.5307 32.4441C29.6505 32.3878 29.8202 32.3079 29.8467 32.3433C29.8842 32.3934 29.753 32.4907 29.6454 32.5704C29.6161 32.5921 29.5885 32.6126 29.5666 32.6304C27.0754 34.6566 21.4364 35.4269 25.3339 27.7176L25.3354 27.7144C25.5744 27.1944 25.8338 26.6302 26.7656 25.2931C28.6407 22.9311 29.5318 22.4013 29.9271 22.1663C30.0764 22.0776 30.1549 22.0309 30.189 21.9434C30.3135 21.6244 27.2635 22.9962 24.836 26.3139C24.836 23.1876 27.3258 20.3803 31.2783 20.3803C31.7365 20.3803 32.1726 20.4195 32.5854 20.4938C35.1375 18.7852 36.5691 18.8497 37.2849 19.1999C38.6543 19.8698 37.6584 22.2305 37.5339 22.2943C37.504 22.3096 37.5281 22.208 37.569 22.0353C37.6987 21.4881 37.9974 20.2269 37.2849 19.7103C36.0397 18.8075 33.9647 20.0772 33.1132 20.5982C33.0921 20.6111 33.0718 20.6235 33.0523 20.6355C35.9305 21.3547 37.5339 23.7994 37.5339 26.4734V27.271H29.3798C29.3798 28.866 30.189 29.5679 31.3717 29.5679ZM33.3013 25.3568C33.3013 24.2722 32.6788 23.3152 31.3717 23.3152C30.0645 23.3152 29.3176 24.2084 29.3176 25.3568H33.3013Z"/>
</mask>
<path d="M33.1768 28.1642V27.1642H32.1768V28.1642H33.1768ZM37.4405 28.1642H38.4405V27.1642H37.4405V28.1642ZM25.8941 29.7593L26.7929 29.3209L26.0187 27.7336L25.0558 29.2141L25.8941 29.7593ZM25.8319 29.855L24.9936 29.3098L24.9584 29.3639L24.9305 29.422L25.8319 29.855ZM29.4732 32.4709L29.0589 31.5608L29.0354 31.5715L29.0124 31.5834L29.4732 32.4709ZM29.5307 32.4441L29.1049 31.5393L29.1049 31.5393L29.5307 32.4441ZM29.8467 32.3433L30.6474 31.7443L30.6474 31.7443L29.8467 32.3433ZM29.6454 32.5704L30.2409 33.3738L30.2409 33.3738L29.6454 32.5704ZM29.5666 32.6304L28.9356 31.8546L28.9356 31.8546L29.5666 32.6304ZM25.3339 27.7176L26.2264 28.1688L26.2348 28.1522L26.2425 28.1353L25.3339 27.7176ZM25.3354 27.7144L26.244 28.1321L26.244 28.132L25.3354 27.7144ZM26.7656 25.2931L25.9824 24.6713L25.963 24.6958L25.9451 24.7214L26.7656 25.2931ZM29.9271 22.1663L30.4381 23.0259L30.4381 23.0259L29.9271 22.1663ZM30.189 21.9434L29.2574 21.5799L29.2574 21.5799L30.189 21.9434ZM24.836 26.3139H23.836V29.3741L25.643 26.9044L24.836 26.3139ZM31.2783 20.3803L31.2783 21.3803L31.2783 21.3803L31.2783 20.3803ZM32.5854 20.4938L32.4083 21.478L32.806 21.5496L33.1418 21.3248L32.5854 20.4938ZM37.2849 19.1999L37.7244 18.3016L37.7244 18.3016L37.2849 19.1999ZM37.5339 22.2943L37.0778 21.4044L37.0778 21.4044L37.5339 22.2943ZM37.569 22.0353L36.596 21.8048L36.596 21.8048L37.569 22.0353ZM37.2849 19.7103L36.6979 20.5199L36.6979 20.5199L37.2849 19.7103ZM33.1132 20.5982L32.5913 19.7452L32.5913 19.7452L33.1132 20.5982ZM33.0523 20.6355L32.5311 19.782L30.4927 21.0267L32.8099 21.6056L33.0523 20.6355ZM37.5339 27.271V28.271H38.5339V27.271H37.5339ZM29.3798 27.271V26.271H28.3798V27.271H29.3798ZM33.3013 25.3568V26.3568H34.3013V25.3568H33.3013ZM29.3176 25.3568H28.3176V26.3568H29.3176V25.3568ZM32.1768 28.1642C32.1768 28.1064 32.1834 28.065 32.1871 28.0456C32.1912 28.0243 32.195 28.0123 32.1956 28.0103C32.1966 28.0073 32.1917 28.0227 32.1754 28.0538C32.1425 28.1164 32.0845 28.2027 32.0019 28.2874C31.8395 28.4539 31.6326 28.5679 31.3717 28.5679V30.5679C32.2933 30.5679 32.9891 30.1395 33.4335 29.684C33.6543 29.4576 33.8258 29.2129 33.9467 28.9825C34.0483 28.7887 34.1768 28.4874 34.1768 28.1642H32.1768ZM37.4405 27.1642H33.1768V29.1642H37.4405V27.1642ZM31.3094 33.439C33.8984 33.439 35.6848 32.4647 36.8211 31.3158C37.3806 30.7501 37.7751 30.1499 38.0329 29.6186C38.2751 29.1194 38.4405 28.5895 38.4405 28.1642H36.4405C36.4405 28.1537 36.4179 28.3655 36.2335 28.7455C36.0647 29.0935 35.7939 29.5102 35.3991 29.9095C34.6265 30.6906 33.3473 31.439 31.3094 31.439V33.439ZM24.9954 30.1977C26.0768 32.4148 28.8581 33.439 31.3094 33.439V31.439C29.2169 31.439 27.3921 30.5491 26.7929 29.3209L24.9954 30.1977ZM26.6702 30.4002L26.7325 30.3045L25.0558 29.2141L24.9936 29.3098L26.6702 30.4002ZM29.0124 31.5834C28.475 31.8624 27.9044 32.0797 27.3937 32.1946C26.8577 32.3152 26.5034 32.297 26.3277 32.2375C26.2909 32.225 26.2702 32.2134 26.2603 32.207C26.2554 32.2038 26.2527 32.2015 26.2515 32.2004C26.2503 32.1994 26.2499 32.1988 26.2497 32.1986C26.2495 32.1983 26.2487 32.1973 26.2473 32.195C26.2459 32.1927 26.2433 32.1879 26.2402 32.1799C26.2338 32.1641 26.2235 32.1315 26.2172 32.0758C26.1883 31.82 26.2626 31.2681 26.7333 30.2879L24.9305 29.422C24.4053 30.5155 24.1373 31.4828 24.2299 32.3008C24.2786 32.7308 24.4292 33.1332 24.704 33.4679C24.9775 33.8008 25.3275 34.0104 25.6863 34.1319C26.3703 34.3635 27.15 34.2994 27.8326 34.1459C28.5405 33.9866 29.2732 33.7015 29.934 33.3584L29.0124 31.5834ZM29.1049 31.5393C29.0822 31.55 29.0689 31.5562 29.0589 31.5608L29.8875 33.381C29.9113 33.3702 29.937 33.3581 29.9564 33.349L29.1049 31.5393ZM30.6474 31.7443C30.4242 31.4459 30.1214 31.3673 29.9764 31.3459C29.8274 31.3239 29.7056 31.3392 29.6473 31.3484C29.5253 31.3676 29.4229 31.4042 29.375 31.422C29.2672 31.4622 29.1543 31.5161 29.1049 31.5393L29.9564 33.349C29.9876 33.3343 30.0123 33.3227 30.0357 33.3122C30.0468 33.3073 30.0557 33.3034 30.0626 33.3005C30.0697 33.2975 30.0727 33.2964 30.0723 33.2966C30.072 33.2967 30.07 33.2974 30.0666 33.2986C30.0633 33.2997 30.0576 33.3015 30.0499 33.3038C30.0376 33.3075 30.005 33.3167 29.9587 33.324C29.9219 33.3298 29.8187 33.3442 29.6844 33.3244C29.5542 33.3052 29.2625 33.2318 29.046 32.9423L30.6474 31.7443ZM30.2409 33.3738C30.277 33.347 30.3984 33.2595 30.4988 33.1615C30.5427 33.1187 30.6558 33.0055 30.7406 32.836C30.8292 32.6588 30.9824 32.192 30.6474 31.7443L29.046 32.9423C28.9083 32.7583 28.848 32.5418 28.8536 32.3368C28.8586 32.1525 28.9151 32.0148 28.9518 31.9414C29.0192 31.8067 29.0998 31.7322 29.1021 31.7299C29.1194 31.7131 29.1214 31.7141 29.05 31.767L30.2409 33.3738ZM30.1976 33.4062C30.1955 33.4079 30.1974 33.4063 30.2063 33.3995C30.2151 33.3929 30.2254 33.3853 30.2409 33.3738L29.05 31.767C29.0265 31.7844 28.9787 31.8196 28.9356 31.8546L30.1976 33.4062ZM24.4415 27.2664C23.4409 29.2457 22.9766 30.8186 23.0009 32.0424C23.0134 32.6694 23.1551 33.2411 23.4544 33.7223C23.758 34.2105 24.1865 34.5451 24.6676 34.7469C25.5878 35.1331 26.6676 35.0275 27.5841 34.7623C28.5268 34.4896 29.4672 34.0002 30.1976 33.4062L28.9356 31.8546C28.4203 32.2737 27.7217 32.6405 27.0282 32.8411C26.3086 33.0493 25.7552 33.0344 25.4414 32.9027C25.3055 32.8457 25.2169 32.7693 25.1527 32.6661C25.0842 32.5559 25.0075 32.3559 25.0005 32.0027C24.9859 31.2659 25.2783 30.0441 26.2264 28.1688L24.4415 27.2664ZM24.4268 27.2967L24.4254 27.2999L26.2425 28.1353L26.244 28.1321L24.4268 27.2967ZM25.9451 24.7214C24.9759 26.1122 24.6879 26.7289 24.4268 27.2967L26.244 28.132C26.461 27.66 26.6917 27.1482 27.586 25.8648L25.9451 24.7214ZM29.4161 21.3067C28.8986 21.6144 27.9189 22.2319 25.9824 24.6713L27.5488 25.9148C29.3624 23.6303 30.1651 23.1882 30.4381 23.0259L29.4161 21.3067ZM29.2574 21.5799C29.2869 21.5044 29.3275 21.4356 29.3748 21.3768C29.4193 21.3213 29.4603 21.2864 29.4805 21.2704C29.4991 21.2557 29.5077 21.251 29.4927 21.2606C29.4772 21.2703 29.4566 21.2826 29.4161 21.3067L30.4381 23.0259C30.4908 22.9946 30.6151 22.923 30.722 22.8384C30.8575 22.7311 31.0206 22.5633 31.1206 22.307L29.2574 21.5799ZM25.643 26.9044C26.7799 25.3506 28.0622 24.2544 29.0337 23.5905C29.5219 23.2569 29.9137 23.0447 30.1512 22.9396C30.2857 22.8801 30.3145 22.8801 30.2682 22.8883C30.2511 22.8913 30.2065 22.8985 30.144 22.8985C30.0931 22.8985 29.9563 22.8949 29.7934 22.8273C29.6071 22.7502 29.3532 22.5697 29.2417 22.2314C29.1427 21.931 29.2172 21.6831 29.2574 21.5799L31.1206 22.307C31.1687 22.1838 31.2447 21.9193 31.1413 21.6056C31.0255 21.254 30.7612 21.0635 30.5588 20.9796C30.3798 20.9055 30.2211 20.8985 30.1429 20.8985C30.0531 20.8985 29.9757 20.909 29.9205 20.9188C29.7217 20.9539 29.5137 21.0347 29.3418 21.1107C28.9666 21.2768 28.4675 21.5551 27.9053 21.9393C26.7761 22.7109 25.3196 23.9595 24.0289 25.7234L25.643 26.9044ZM31.2783 19.3803C26.794 19.3803 23.836 22.615 23.836 26.3139H25.836C25.836 23.7602 27.8576 21.3803 31.2783 21.3803L31.2783 19.3803ZM32.7626 19.5096C32.2891 19.4244 31.7937 19.3803 31.2783 19.3803L31.2783 21.3803C31.6793 21.3803 32.056 21.4146 32.4083 21.478L32.7626 19.5096ZM37.7244 18.3016C36.529 17.7169 34.6923 17.8798 32.0291 19.6629L33.1418 21.3248C35.5827 19.6905 36.6092 19.9826 36.8455 20.0982L37.7244 18.3016ZM37.99 23.1843C38.1716 23.0912 38.2794 22.9649 38.3047 22.9355C38.3486 22.8847 38.3814 22.8375 38.4019 22.8063C38.4441 22.7422 38.4795 22.677 38.5071 22.6226C38.5643 22.5098 38.6227 22.3738 38.6774 22.2265C38.7867 21.9324 38.9017 21.5383 38.9604 21.1101C39.0641 20.3527 39.0408 18.9457 37.7244 18.3016L36.8455 20.0982C36.9022 20.1259 36.934 20.1559 36.9631 20.2508C37.0017 20.3764 37.0149 20.5758 36.9789 20.8388C36.9441 21.0924 36.8724 21.3423 36.8027 21.5298C36.768 21.6232 36.7389 21.6874 36.7231 21.7185C36.7142 21.736 36.7168 21.7287 36.7314 21.7065C36.7382 21.6963 36.7584 21.6661 36.7913 21.628C36.8057 21.6114 36.904 21.4935 37.0778 21.4044L37.99 23.1843ZM36.596 21.8048C36.5797 21.8734 36.5527 21.9848 36.5381 22.0734C36.5358 22.0878 36.5068 22.2393 36.5293 22.4129C36.5353 22.4591 36.5743 22.8216 36.9106 23.0836C37.3662 23.4385 37.8435 23.2593 37.99 23.1843L37.0778 21.4044C37.2168 21.3332 37.6883 21.1542 38.1397 21.5058C38.4718 21.7645 38.5081 22.1202 38.5128 22.1563C38.5253 22.2529 38.5194 22.3265 38.5178 22.3459C38.5155 22.3743 38.5123 22.3935 38.5117 22.3973C38.5105 22.4045 38.5112 22.3992 38.5177 22.3701C38.5238 22.3433 38.5315 22.3107 38.5421 22.2659L36.596 21.8048ZM36.6979 20.5199C36.655 20.4888 36.7442 20.5094 36.7428 20.8572C36.7415 21.1748 36.6632 21.5208 36.596 21.8048L38.5421 22.2659C38.6045 22.0026 38.7404 21.4444 38.7428 20.8654C38.745 20.3168 38.6273 19.4484 37.8719 18.9007L36.6979 20.5199ZM33.6351 21.4512C34.0689 21.1858 34.7138 20.7949 35.3779 20.5656C36.0896 20.3197 36.4933 20.3716 36.6979 20.5199L37.8719 18.9007C36.8313 18.1463 35.5749 18.3816 34.7249 18.6751C33.8273 18.9852 33.009 19.4896 32.5913 19.7452L33.6351 21.4512ZM33.5734 21.4889C33.5934 21.4767 33.6141 21.4641 33.6351 21.4512L32.5913 19.7452C32.5701 19.7582 32.5502 19.7704 32.5311 19.782L33.5734 21.4889ZM38.5339 26.4734C38.5339 23.391 36.6654 20.5075 33.2947 19.6653L32.8099 21.6056C35.1956 22.2018 36.5339 24.2077 36.5339 26.4734H38.5339ZM38.5339 27.271V26.4734H36.5339V27.271H38.5339ZM29.3798 28.271H37.5339V26.271H29.3798V28.271ZM31.3717 28.5679C30.9784 28.5679 30.7762 28.4561 30.6631 28.335C30.5412 28.2045 30.3798 27.9096 30.3798 27.271H28.3798C28.3798 28.2274 28.6231 29.081 29.2015 29.7002C29.7886 30.3287 30.5823 30.5679 31.3717 30.5679V28.5679ZM31.3717 24.3152C31.759 24.3152 31.9528 24.4455 32.0651 24.5774C32.1969 24.7322 32.3013 24.995 32.3013 25.3568H34.3013C34.3013 24.634 34.0944 23.876 33.5882 23.2812C33.0624 22.6634 32.2915 22.3152 31.3717 22.3152V24.3152ZM30.3176 25.3568C30.3176 24.9986 30.4318 24.7488 30.5779 24.5957C30.7166 24.4504 30.9566 24.3152 31.3717 24.3152V22.3152C30.4796 22.3152 29.6926 22.6265 29.131 23.2149C28.5769 23.7956 28.3176 24.5666 28.3176 25.3568H30.3176ZM33.3013 24.3568H29.3176V26.3568H33.3013V24.3568Z" fill="#244C83" mask="url(#path-7-outside-1_3_36)"/>
<g filter="url(#filter1_di_3_36)">
<path fill-rule="evenodd" clip-rule="evenodd" d="M31.3717 29.5679C32.5543 29.5679 33.1768 28.4832 33.1768 28.1642H37.4405C37.4405 28.9936 35.9363 32.439 31.3094 32.439C29.0375 32.439 26.7344 31.482 25.8941 29.7593L25.8319 29.855C23.8401 34.0022 27.0768 33.7151 29.4732 32.4709C29.4901 32.4632 29.5096 32.454 29.5307 32.4441C29.6505 32.3878 29.8202 32.3079 29.8467 32.3433C29.8842 32.3934 29.753 32.4907 29.6454 32.5704C29.6161 32.5921 29.5885 32.6126 29.5666 32.6304C27.0754 34.6566 21.4364 35.4269 25.3339 27.7176L25.3354 27.7144C25.5744 27.1944 25.8338 26.6302 26.7656 25.2931C28.6407 22.9311 29.5318 22.4013 29.9271 22.1663C30.0764 22.0776 30.1549 22.0309 30.189 21.9434C30.3135 21.6244 27.2635 22.9962 24.836 26.3139C24.836 23.1876 27.3258 20.3803 31.2783 20.3803C31.7365 20.3803 32.1726 20.4195 32.5854 20.4938C35.1375 18.7852 36.5691 18.8497 37.2849 19.1999C38.6543 19.8698 37.6584 22.2305 37.5339 22.2943C37.504 22.3096 37.5281 22.208 37.569 22.0353C37.6987 21.4881 37.9974 20.2269 37.2849 19.7103C36.0397 18.8075 33.9647 20.0772 33.1132 20.5982C33.0921 20.6111 33.0718 20.6235 33.0523 20.6355C35.9305 21.3547 37.5339 23.7994 37.5339 26.4734V27.271H29.3798C29.3798 28.866 30.189 29.5679 31.3717 29.5679ZM33.3013 25.3568C33.3013 24.2722 32.6788 23.3152 31.3717 23.3152C30.0645 23.3152 29.3176 24.2084 29.3176 25.3568H33.3013Z" fill="url(#paint5_linear_3_36)"/>
</g>
<path fill-rule="evenodd" clip-rule="evenodd" d="M31.3717 29.5679C32.5543 29.5679 33.1768 28.4832 33.1768 28.1642H37.4405C37.4405 28.9936 35.9363 32.439 31.3094 32.439C29.0375 32.439 26.7344 31.482 25.8941 29.7593L25.8319 29.855C23.8401 34.0022 27.0768 33.7151 29.4732 32.4709C29.4901 32.4632 29.5096 32.454 29.5307 32.4441C29.6505 32.3878 29.8202 32.3079 29.8467 32.3433C29.8842 32.3934 29.753 32.4907 29.6454 32.5704C29.6161 32.5921 29.5885 32.6126 29.5666 32.6304C27.0754 34.6566 21.4364 35.4269 25.3339 27.7176L25.3354 27.7144C25.5744 27.1944 25.8338 26.6302 26.7656 25.2931C28.6407 22.9311 29.5318 22.4013 29.9271 22.1663C30.0764 22.0776 30.1549 22.0309 30.189 21.9434C30.3135 21.6244 27.2635 22.9962 24.836 26.3139C24.836 23.1876 27.3258 20.3803 31.2783 20.3803C31.7365 20.3803 32.1726 20.4195 32.5854 20.4938C35.1375 18.7852 36.5691 18.8497 37.2849 19.1999C38.6543 19.8698 37.6584 22.2305 37.5339 22.2943C37.504 22.3096 37.5281 22.208 37.569 22.0353C37.6987 21.4881 37.9974 20.2269 37.2849 19.7103C36.0397 18.8075 33.9647 20.0772 33.1132 20.5982C33.0921 20.6111 33.0718 20.6235 33.0523 20.6355C35.9305 21.3547 37.5339 23.7994 37.5339 26.4734V27.271H29.3798C29.3798 28.866 30.189 29.5679 31.3717 29.5679ZM33.3013 25.3568C33.3013 24.2722 32.6788 23.3152 31.3717 23.3152C30.0645 23.3152 29.3176 24.2084 29.3176 25.3568H33.3013Z" fill="url(#paint6_linear_3_36)" fill-opacity="0.7" style="mix-blend-mode:overlay"/>
<defs>
<filter id="filter0_d_3_36" x="1.39197" y="12.64" width="31.2313" height="8.35999" filterUnits="userSpaceOnUse" color-interpolation-filters="sRGB">
<feFlood flood-opacity="0" result="BackgroundImageFix"/>
<feColorMatrix in="SourceAlpha" type="matrix" values="0 0 0 0 0 0 0 0 0 0 0 0 0 0 0 0 0 0 127 0" result="hardAlpha"/>
<feOffset dy="1"/>
<feGaussianBlur stdDeviation="0.5"/>
<feComposite in2="hardAlpha" operator="out"/>
<feColorMatrix type="matrix" values="0 0 0 0 0.305882 0 0 0 0 0.517647 0 0 0 0 0.827451 0 0 0 0.2 0"/>
<feBlend mode="normal" in2="BackgroundImageFix" result="effect1_dropShadow_3_36"/>
<feBlend mode="normal" in="SourceGraphic" in2="effect1_dropShadow_3_36" result="shape"/>
</filter>
<filter id="filter1_di_3_36" x="21" y="16" width="22" height="23" filterUnits="userSpaceOnUse" color-interpolation-filters="sRGB">
<feFlood flood-opacity="0" result="BackgroundImageFix"/>
<feColorMatrix in="SourceAlpha" type="matrix" values="0 0 0 0 0 0 0 0 0 0 0 0 0 0 0 0 0 0 127 0" result="hardAlpha"/>
<feOffset dx="1" dy="1"/>
<feGaussianBlur stdDeviation="2"/>
<feComposite in2="hardAlpha" operator="out"/>
<feColorMatrix type="matrix" values="0 0 0 0 0.339863 0 0 0 0 0.560895 0 0 0 0 0.860402 0 0 0 0.6 0"/>
<feBlend mode="normal" in2="BackgroundImageFix" result="effect1_dropShadow_3_36"/>
<feBlend mode="normal" in="SourceGraphic" in2="effect1_dropShadow_3_36" result="shape"/>
<feColorMatrix in="SourceAlpha" type="matrix" values="0 0 0 0 0 0 0 0 0 0 0 0 0 0 0 0 0 0 127 0" result="hardAlpha"/>
<feOffset dx="-0.5" dy="-0.5"/>
<feGaussianBlur stdDeviation="0.75"/>
<feComposite in2="hardAlpha" operator="arithmetic" k2="-1" k3="1"/>
<feColorMatrix type="matrix" values="0 0 0 0 1 0 0 0 0 1 0 0 0 0 1 0 0 0 1 0"/>
<feBlend mode="normal" in2="shape" result="effect2_innerShadow_3_36"/>
</filter>
<linearGradient id="paint0_linear_3_36" x1="17" y1="1" x2="17" y2="25" gradientUnits="userSpaceOnUse">
<stop stop-color="#FEFEFE"/>
<stop offset="0.33" stop-color="#FBFCFD"/>
<stop offset="1" stop-color="#C7D7E9"/>
</linearGradient>
<linearGradient id="paint1_linear_3_36" x1="1" y1="13" x2="33" y2="13" gradientUnits="userSpaceOnUse">
<stop stop-color="#4E84D3"/>
<stop offset="0.5" stop-color="#6FAEF3"/>
<stop offset="1" stop-color="#4E84D3"/>
</linearGradient>
<linearGradient id="paint2_linear_3_36" x1="17" y1="4" x2="17" y2="25" gradientUnits="userSpaceOnUse">
<stop stop-color="#FEFEFE"/>
<stop offset="0.33" stop-color="#FBFCFD"/>
<stop offset="1" stop-color="#C7D7E9"/>
</linearGradient>
<linearGradient id="paint3_linear_3_36" x1="1" y1="3" x2="33" y2="3" gradientUnits="userSpaceOnUse">
<stop stop-color="#4E84D3"/>
<stop offset="0.5" stop-color="#6FAEF3"/>
<stop offset="1" stop-color="#4E84D3"/>
</linearGradient>
<linearGradient id="paint4_linear_3_36" x1="1" y1="6" x2="33" y2="6" gradientUnits="userSpaceOnUse">
<stop stop-color="#386CB3"/>
<stop offset="0.5" stop-color="#548FCF"/>
<stop offset="1" stop-color="#386CB3"/>
</linearGradient>
<linearGradient id="paint5_linear_3_36" x1="35.3242" y1="31.2267" x2="26.2796" y2="22.2213" gradientUnits="userSpaceOnUse">
<stop stop-color="#6FAEF3"/>
<stop offset="0.132201" stop-color="#578FDB"/>
<stop offset="0.5" stop-color="#4E84D3"/>
<stop offset="1" stop-color="#6FAEF3"/>
</linearGradient>
<linearGradient id="paint6_linear_3_36" x1="35.5" y1="31" x2="27" y2="22" gradientUnits="userSpaceOnUse">
<stop offset="0.024309" stop-color="white"/>
<stop offset="0.340245" stop-color="white" stop-opacity="0.0471926"/>
<stop offset="0.879895" stop-color="white" stop-opacity="0"/>
<stop offset="1" stop-color="white"/>
</linearGradient>
</defs>
</svg>
