<svg width="15" height="16" viewBox="0 0 15 16" fill="none" xmlns="http://www.w3.org/2000/svg">
<path fill-rule="evenodd" clip-rule="evenodd" d="M7.89822 11.2724C9.16534 11.2724 9.83225 10.1154 9.83225 9.77516H14.4006C14.4006 10.6599 12.7889 14.3349 7.83153 14.3349C5.39732 14.3349 2.92977 13.3141 2.02944 11.4766L1.96275 11.5787C-0.171351 16.0023 3.29657 15.6961 5.86416 14.369C5.88228 14.3607 5.90317 14.351 5.9257 14.3404C6.05408 14.2803 6.23594 14.1951 6.2643 14.2328C6.30448 14.2863 6.1639 14.39 6.04866 14.4751C6.01722 14.4983 5.98767 14.5201 5.96419 14.5391C3.29505 16.7004 -2.74666 17.5221 1.42923 9.29876L1.43082 9.29532C1.6869 8.74073 1.96482 8.13885 2.96311 6.71262C4.97215 4.19314 5.92695 3.62804 6.35046 3.37739C6.51038 3.28274 6.59454 3.23293 6.6311 3.13966C6.76448 2.79937 3.49664 4.26259 0.895698 7.80152C0.895698 4.46677 3.56333 1.47228 7.79818 1.47228C8.28914 1.47228 8.75634 1.51413 9.19869 1.59339C11.933 -0.229136 13.4669 -0.1603 14.2338 0.213233C15.701 0.927823 14.634 3.44591 14.5006 3.51397C14.4686 3.53029 14.4944 3.42191 14.5382 3.2377C14.6771 2.65395 14.9973 1.30873 14.2338 0.757687C12.8997 -0.205301 10.6764 1.14904 9.76415 1.70477C9.74158 1.71852 9.71981 1.73178 9.69887 1.7445C12.7827 2.51163 14.5006 5.11932 14.5006 7.97166V8.82237H5.76412C5.76412 10.5238 6.63109 11.2724 7.89822 11.2724ZM9.96564 6.78063C9.96564 5.62367 9.29873 4.60283 7.89823 4.60283C6.49772 4.60283 5.69743 5.55562 5.69743 6.78063H9.96564Z" fill="white"/>
</svg>
